<?xml version="1.0" encoding="utf-8"?>
<!-- Generator: Adobe Illustrator 25.0.0, SVG Export Plug-In . SVG Version: 6.00 Build 0)  -->
<svg version="1.1" id="Capa_1" xmlns="http://www.w3.org/2000/svg" xmlns:xlink="http://www.w3.org/1999/xlink" x="0px" y="0px"
	 viewBox="0 0 294.4 404.8" style="enable-background:new 0 0 294.4 404.8;" xml:space="preserve">
<style type="text/css">
	.st0{fill:#513314;}
	.st1{fill:none;stroke:#000000;stroke-miterlimit:10;}
	.st2{fill:#CBB827;}
	.st3{fill:#A9C0D4;}
	.st4{fill:#E50C50;}
	.st5{fill:#F3EFD1;}
	.st6{fill:#EA7D33;}
	.st7{fill:none;stroke:#000000;stroke-width:0.25;stroke-miterlimit:10;}
	.st8{fill:#513314;stroke:#000000;stroke-width:0.25;stroke-miterlimit:10;}
	.st9{fill:none;}
</style>
<g>
	<rect class="st0" width="294.4" height="404.8"/>
	<path class="st1" d="M271.96,224.56"/>
	<path class="st2" d="M64.08,271.66H38.96l-0.25-12.3c0.37-39.03-0.8-80.46-4.11-123.98c-1.26-16.61-2.78-32.85-4.52-48.69
		c-0.28-2.56-0.42-5.12-0.41-7.7c0.06-15.83,0.12-31.66,0.18-47.49h36.6c0,0-1.1,66.35-1,82.15c0.01,0.94-0.3,34.6-1.4,142.7
		L64.08,271.66z"/>
	<path class="st3" d="M130.46,31.51h38.6v69.65c0,0-0.4,30.8,4.6,170.5h-43.2V31.51z"/>
	<path class="st4" d="M185.08,31.51h34.8v240.15h-36.6v-77.9C183.28,193.76,186.08,89.26,185.08,31.51z"/>
	<path class="st5" d="M229.51,31.51h35.7v84.38c0,1.56-0.41,13.23-0.6,14.78c-1.22,10.38-5.6,54.45-3.15,140.99h-30.07
		c0,0-0.66-71.81-0.93-75.4C229.94,191.58,229.56,149.26,229.51,31.51z"/>
	<path class="st6" d="M76.32,31.51h39.34v240.15h-35.7c0,0,1.35-48.45-3-164.7L76.32,31.51z"/>
	<path class="st0" d="M229.68,131.16c0,0,15.38-10,24.18-10.6c0,0-4,4.6-5.2,9.4c0,0-3.21,17.5-18.86,24L229.68,131.16z"/>
	<path class="st0" d="M196.06,193.76c0,0,6.4-5.4,5.7-13.4c0,0-1.7-11.8-9.3-20C192.46,160.36,180.46,182.96,196.06,193.76z"/>
	<path class="st0" d="M190.36,243.6c0,0,10.2-8.84,29.7-4.64v7.8c0,0-3.43,2.26-12,4.28C208.06,251.04,197.18,253.89,190.36,243.6z"
		/>
	<path class="st7" d="M229.51,141.36c0,0,6.15-11.6,15.75-14.4"/>
	<path class="st7" d="M229.96,140.97c0,0,6.53-10.59,15.3-14.01"/>
	<path class="st8" d="M214.25,154.22c0,0,4.61-5.07,5.81-5.26"/>
	<path class="st7" d="M202.87,219.56c-2.42-0.61-6.97-25.32-7.79-28.52c-1.14-3.44-0.92-8.78-0.21-13.69
		c0.16-1.18,0.35-2.23,0.53-3.11c0.11-0.54,0.22-1.02,0.31-1.42c0.1-0.35,0.69-3.32-1.06-5.81c-1.14-1.63-3.23-2.07-3.82-2.22"/>
	<path class="st7" d="M195.59,193.34c-0.04-0.18-0.49-0.57-1.14-3.46c-0.88-4.16-0.64-7.62,0.07-12.53
		c0.16-1.18,0.35-2.23,0.53-3.11c0.11-0.54,0.22-1.02,0.31-1.42c0.1-0.35,0.69-3.32-1.06-5.81c-1.14-1.63-2.87-2.07-3.47-2.22"/>
	<path class="st7" d="M183.61,245.56c0,0,18.52-6.8,33.02-3.2C216.63,242.36,205.21,237.09,183.61,245.56z"/>
	<path class="st0" d="M38.75,261.71c0,0,5.84-3.99,25.3-5.35c19.88-1.38,18.97-0.97,51.6-1.24c0,0,40.7,2,57.05-10.5
		c0,0,33.95-16.92,35.95-65.11c0,0,0.72-50.75-6.17-74.44c-0.73-2.53-0.84-4.8-0.8-7.25c0.17-9.93,2.31-33.9,18.37-47.3
		c0,0,13.3-14.21,45.15-19.01c0,0-56.21,7.06-59.14,63.65c-0.15,2.94,0.26,5.81,1,8.8c4.1,16.6,24.35,113.12-23.46,141.6
		c0,0-15.38,15.98-52.72,19.43c-1.44,0.13-82.8,1.31-91.92,6.67L38.75,261.71z"/>
	<g id="Atahona_bistro_1_">
		<rect x="14.66" y="284.12" class="st9" width="274.8" height="105"/>
		<path class="st3" d="M33.26,346.3v-1.38c2.24-0.17,3.27-0.77,3.78-3.87l9.98-56.93h6.28l8.51,60.8h3.1v1.38H47.97v-1.38h3.44
			l-1.29-11.35H40.06l-1.12,8.6c-0.26,2.06,2.41,2.75,3.87,2.75v1.38H33.26z M49.86,332.19l-3.96-30.87h-0.17l-5.42,30.87H49.86z"/>
		<path class="st3" d="M84.89,303.04v38.79c0,2.32,0.52,2.67,1.63,2.67c1.89,0,3.35-3.35,3.53-13.85h1.46
			c0,13.5-2.49,16.51-7.74,16.51c-5.16,0-7.57-2.84-7.57-7.74v-36.38h-3.01v-0.86c4.9-3.35,8.86-9.03,10.84-15.48h0.86v14.96h6.11
			v1.38H84.89z"/>
		<path class="st3" d="M123.39,341.65c0,2.32,0.43,2.58,1.2,2.58c0.86,0,1.98-1.2,2.24-5.76h1.38c-0.34,7.57-3.61,8.69-6.54,8.69
			c-3.1,0-5.76-1.29-6.45-4.3h-0.17c-0.52,2.92-3.18,4.3-6.19,4.3c-5.25,0-7.57-3.01-7.57-12.21c0-11.01,3.96-14.79,13.42-16.43
			v-8.69c0-6.19-0.69-7.22-3.35-7.22c-2.41,0-5.07,1.55-6.02,3.7c0.69-0.17,1.63-0.34,2.58-0.34c2.15,0,3.78,2.06,3.78,4.13
			c0,2.49-1.81,4.64-4.39,4.64c-3.27,0-4.82-1.81-4.82-5.07c0-4.39,3.87-8.6,11.09-8.6c3.27,0,9.8,0.34,9.8,10.15V341.65z
			 M109.97,340.28c0,1.89,0,3.53,2.32,3.53s2.41-2.84,2.41-5.93v-17.72c-3.87,0.69-4.73,2.06-4.73,5.93V340.28z"/>
		<path class="st3" d="M164.06,346.3h-12.47v-1.38h1.2v-38.01c0-1.98-0.34-2.67-1.81-2.67c-1.2,0-2.58,1.89-2.58,4.73v35.95h1.2
			v1.38h-12.38v-1.38h2.49V285.5h-2.24v-1.38h10.92v20.64h0.17c1.29-2.24,3.61-3.7,6.71-3.7c3.87,0,6.19,2.49,6.19,8.94v34.92h2.58
			V346.3z"/>
		<path class="st3" d="M185.72,347.16c-8,0-11.87-7.05-11.87-23.05s3.87-23.05,11.87-23.05c8,0,11.87,7.05,11.87,23.05
			S193.72,347.16,185.72,347.16z M182.97,341.39c0,2.49,0.52,4.39,2.75,4.39c2.67,0,2.75-1.89,2.75-4.39v-34.57
			c0-2.49-0.52-4.39-2.75-4.39c-2.24,0-2.75,1.89-2.75,4.39V341.39z"/>
		<path class="st3" d="M233.95,346.3h-12.13v-1.38h1.2v-38.01c0-1.98-0.34-2.67-1.81-2.67c-1.2,0-2.58,1.89-2.58,4.73v35.95h1.2
			v1.38h-12.47v-1.38h2.58v-41.88h-2.58v-1.38h10.92v3.27h0.34c2.15-2.92,3.53-3.87,6.88-3.87c3.87,0,6.19,2.49,6.19,8.94v34.92
			h2.24V346.3z"/>
		<path class="st3" d="M265.43,341.65c0,2.32,0.43,2.58,1.2,2.58c0.86,0,1.98-1.2,2.24-5.76h1.38c-0.34,7.57-3.61,8.69-6.54,8.69
			c-3.1,0-5.76-1.29-6.45-4.3h-0.17c-0.52,2.92-3.18,4.3-6.19,4.3c-5.25,0-7.57-3.01-7.57-12.21c0-11.01,3.96-14.79,13.42-16.43
			v-8.69c0-6.19-0.69-7.22-3.35-7.22c-2.41,0-5.07,1.55-6.02,3.7c0.69-0.17,1.63-0.34,2.58-0.34c2.15,0,3.78,2.06,3.78,4.13
			c0,2.49-1.81,4.64-4.39,4.64c-3.27,0-4.82-1.81-4.82-5.07c0-4.39,3.87-8.6,11.09-8.6c3.27,0,9.8,0.34,9.8,10.15V341.65z
			 M252.01,340.28c0,1.89,0,3.53,2.32,3.53c2.32,0,2.41-2.84,2.41-5.93v-17.72c-3.87,0.69-4.73,2.06-4.73,5.93V340.28z"/>
		<path class="st3" d="M115.8,354.9h2.56v13.5h0.06c1.22-1.6,3.1-2.56,5.15-2.56c4.48,0,7.23,3.68,7.23,7.94
			c0,4.19-2.78,7.94-7.2,7.94c-2.08,0-3.97-0.86-5.18-2.5h-0.06v2.08h-2.56V354.9z M118.23,373.62c0,2.94,1.73,5.73,4.93,5.73
			c3.3,0,5.02-2.66,5.02-5.7c0-3.01-1.89-5.44-5.06-5.44C120.15,368.21,118.23,370.8,118.23,373.62z"/>
		<path class="st3" d="M138.2,360.59c0,1.02-0.83,1.82-1.82,1.82c-0.99,0-1.82-0.8-1.82-1.82c0-0.99,0.83-1.82,1.82-1.82
			C137.37,358.77,138.2,359.6,138.2,360.59z M137.66,381.3h-2.56v-15.04h2.56V381.3z"/>
		<path class="st3" d="M149.3,369.75c-0.35-0.8-1.12-1.54-2.05-1.54c-0.9,0-1.86,0.7-1.86,1.66c0,1.38,1.73,1.89,3.49,2.62
			c1.76,0.74,3.49,1.79,3.49,4.32c0,2.85-2.3,4.9-5.09,4.9c-2.53,0-4.51-1.44-5.31-3.81l2.27-0.96c0.64,1.41,1.38,2.4,3.07,2.4
			c1.38,0,2.43-0.93,2.43-2.3c0-3.36-6.78-2.21-6.78-6.94c0-2.53,2.05-4.26,4.48-4.26c1.73,0,3.33,1.22,4,2.78L149.3,369.75z"/>
		<path class="st3" d="M158.9,381.3h-2.56v-12.67h-1.57v-2.37h1.57v-5.41h2.56v5.41h2.69v2.37h-2.69V381.3z"/>
		<path class="st3" d="M166.55,367.89h0.06c0.9-1.18,1.66-2.05,3.33-2.05c0.86,0,1.57,0.29,2.3,0.7l-1.22,2.34
			c-0.51-0.35-0.86-0.67-1.54-0.67c-2.82,0-2.94,3.62-2.94,5.57v7.52h-2.56v-15.04h2.56V367.89z"/>
		<path class="st3" d="M173.72,373.81c0-4.42,3.49-7.97,7.9-7.97s7.9,3.55,7.9,7.97c0,4.42-3.52,7.9-7.9,7.9
			S173.72,378.22,173.72,373.81z M176.28,373.78c0,3.07,2.18,5.57,5.34,5.57s5.34-2.5,5.34-5.57c0-3.04-2.18-5.57-5.34-5.57
			S176.28,370.74,176.28,373.78z"/>
	</g>
</g>
<g>
</g>
<g>
</g>
<g>
</g>
<g>
</g>
<g>
</g>
<g>
</g>
</svg>
